<svg xmlns="http://www.w3.org/2000/svg" width="16.510000228881836" height="18.674999237060547" style=""><rect id="backgroundrect" width="100%" height="100%" x="0" y="0" fill="none" stroke="none"/><title>document</title><g class="currentLayer" style=""><title>Layer 1</title><g data-name="Layer 2" id="svg_1" class="" stroke="#dadada" stroke-opacity="1" fill="#dadada" fill-opacity="1"><g data-name="Layer 1" id="svg_2" stroke="#dadada" stroke-opacity="1" fill="#dadada" fill-opacity="1"><rect x="5.96999979019165" y="2.9800000190734863" width="8.140000343322754" height="1.090000033378601" id="svg_3" stroke="#dadada" stroke-opacity="1" fill="#dadada" fill-opacity="1"/><rect x="5.96999979019165" y="6.039999961853027" width="8.140000343322754" height="1.090000033378601" id="svg_4" stroke="#dadada" stroke-opacity="1" fill="#dadada" fill-opacity="1"/><rect x="5.96999979019165" y="9.109999656677246" width="8.140000343322754" height="1.090000033378601" id="svg_5" stroke="#dadada" stroke-opacity="1" fill="#dadada" fill-opacity="1"/><path d="M2.35,14.94H2.17A2.36,2.36,0,0,1,0,12.45V8.25H4.15V9.34H1.09v3.11a1.28,1.28,0,0,0,1.16,1.4,1.33,1.33,0,0,0,.92-.3,1.26,1.26,0,0,0,.43-.86l1.1.08a2.35,2.35,0,0,1-2.35,2.17Z" id="svg_6" stroke="#dadada" stroke-opacity="1" fill="#dadada" fill-opacity="1"/><path d="M13.4,14.94H2.21v-1.1H13.4a2,2,0,0,0,2-2V1.09H4.7V12.81H3.61V0h12.9V11.83A3.12,3.12,0,0,1,13.4,14.94Z" id="svg_7" stroke="#dadada" stroke-opacity="1" fill="#dadada" fill-opacity="1"/></g></g></g></svg>