<?xml version="1.0" encoding="utf-8"?>
<!-- Generator: Adobe Illustrator 27.2.0, SVG Export Plug-In . SVG Version: 6.00 Build 0)  -->
<svg version="1.1" id="Layer_1" xmlns="http://www.w3.org/2000/svg" xmlns:xlink="http://www.w3.org/1999/xlink" x="0px" y="0px"
	 viewBox="0 0 1100 1058.8" style="enable-background:new 0 0 1100 1058.8;" xml:space="preserve">
<style type="text/css">
	.st0{fill:#FFFFFF;}
</style>
<g id="NewGroupe2">
	<g id="NewGroup0-47">
		<g>
			<path class="st0" d="M829.2,969.4c5.6-14.9,118.6-321.1,157.6-427.5v-70.8c0-240.8-195.9-438.7-436.7-438.7h0
				c-240.8,0-436.7,197.9-436.7,438.7V532l118.5,332.5l96.5,45l77.4-28.1l45-96.5l-87.9-243.5l-96.5-45l-77.4,28.2l-10.2,21.8
				l-7.1-19.5v-55.7c0-94,34.7-181.9,91.6-248.1l23.1,23.1c29.7,30.3,77.5,33.8,113,8.7c88.5-62.3,213.1-62.3,301.7,0
				c34.9,24.6,84.1,21.2,113-8.7l23.1-23.1c56.9,66.3,91.6,154.1,91.6,248.1v55.7l-7.1,19.5l-10.2-21.8l-77.4-28.1l-96.5,45
				l-87.9,243.5l45,96.5l77.4,28.1l21.2-9.9l-18.4,49.5c-4.2,11.3-15.2,19-27.3,19H520.9v58.2h226.5
				C783.7,1026.3,816.6,1003.4,829.2,969.4L829.2,969.4L829.2,969.4z"/>
		</g>
	</g>
</g>
</svg>
