<?xml version="1.0" encoding="utf-8"?>
<!-- Generator: Adobe Illustrator 24.3.0, SVG Export Plug-In . SVG Version: 6.00 Build 0)  -->
<svg version="1.1" id="Layer_1" xmlns="http://www.w3.org/2000/svg" xmlns:xlink="http://www.w3.org/1999/xlink" x="0px" y="0px"
	 viewBox="0 0 20 20" style="enable-background:new 0 0 20 20;" xml:space="preserve">
<style type="text/css">
	.st0{fill:#FFFFFF;}
	.st1{fill:#FAE100;}
	.st2{fill:#222222;}
</style>
<g id="PT">
	<g>
		<polygon class="st0" points="10,0.6 17.5,2.8 17.9,2.4 10,0.2 2.1,2.4 2.5,2.8 		"/>
		<path class="st0" d="M17.5,2.8L17.5,2.8v13c0,0.6-0.2,1.1-0.6,1.5c-0.3,0.4-0.7,0.6-1.2,0.7L10,19.4L4.3,18
			c-0.5-0.1-0.9-0.4-1.2-0.7c-0.4-0.4-0.6-0.9-0.6-1.5v-13l0,0L2.1,2.4v13.3c0,0.7,0.3,1.3,0.7,1.8c0.4,0.4,0.8,0.7,1.4,0.8l5.8,1.4
			l5.8-1.4c0.6-0.1,1.1-0.4,1.4-0.8c0.4-0.5,0.7-1.1,0.7-1.8V2.4L17.5,2.8z"/>
		<path class="st0" d="M5.5,8.5c-0.8,1-1.2,2.2-1.2,3.5c0,3.1,2.5,5.6,5.6,5.6s5.6-2.5,5.6-5.6c0-2.6-1.7-4.8-4.1-5.4l2.5-3.4
			l0.3-0.4H9.8L6.3,7.4C6,7.8,5.7,8.2,5.5,8.5z M9.9,10.1c1.1,0,1.9,0.9,1.9,1.9c0,1.1-0.9,1.9-1.9,1.9C8.8,13.9,8,13.1,8,12
			S8.8,10.1,9.9,10.1z"/>
	</g>
	<rect x="0.1" y="9.2" class="st1" width="19.8" height="5.7"/>
	<g>
		<path class="st2" d="M4.4,13.6c-0.3,0.1-0.7,0.2-1.1,0.2c-0.8,0-1.3-0.4-1.3-1.2v-1.1c0-0.8,0.6-1.3,1.5-1.3
			c0.4,0,0.7,0.1,0.9,0.2L4.2,11c-0.2-0.1-0.4-0.1-0.7-0.1c-0.5,0-0.8,0.2-0.8,0.6v1.1c0,0.4,0.2,0.6,0.6,0.6c0.1,0,0.2,0,0.3,0V12
			h0.7v1.6H4.4z"/>
		<path class="st2" d="M6.3,10.2c0.7,0,1.2,0.4,1.2,1.1v0.2c0,0.5-0.2,0.8-0.6,0.9l0.7,1.3H6.8l-0.5-1.1H5.8v1.1H5v-3.5H6.3z
			 M5.8,10.9V12h0.5c0.3,0,0.5-0.2,0.5-0.5v-0.2c0-0.3-0.2-0.5-0.5-0.5L5.8,10.9L5.8,10.9z"/>
		<path class="st2" d="M10.2,13.7L10,13H8.9l-0.2,0.7H7.9l1-3.5H10l1,3.5H10.2z M9.1,12.4h0.8l-0.4-1.6L9.1,12.4z"/>
		<path class="st2" d="M12,10.9h-0.9v-0.6h2.6v0.6h-0.9v2.9H12V10.9z"/>
		<path class="st2" d="M15,13.7h-0.8v-3.5H15V13.7z"/>
		<path class="st2" d="M16.6,13.8c-0.5,0-0.9-0.1-1.1-0.2l0.1-0.6c0.2,0.1,0.5,0.1,0.9,0.1s0.6-0.1,0.6-0.4c0-0.4-0.3-0.4-1-0.6
			c-0.4-0.1-0.6-0.4-0.6-0.9c0-0.6,0.4-1.1,1.2-1.1c0.5,0,0.8,0.1,1,0.1L17.6,11c-0.2-0.1-0.5-0.1-0.8-0.1s-0.5,0.1-0.5,0.4
			c0,0.2,0.1,0.3,0.4,0.4l0.4,0.1c0.5,0.2,0.8,0.4,0.8,1S17.5,13.8,16.6,13.8z"/>
	</g>
</g>
</svg>
