<?xml version="1.0" encoding="utf-8"?>
<!-- Generator: Adobe Illustrator 23.0.1, SVG Export Plug-In . SVG Version: 6.00 Build 0)  -->
<svg version="1.1" id="Layer_1" xmlns="http://www.w3.org/2000/svg" xmlns:xlink="http://www.w3.org/1999/xlink" x="0px" y="0px"
	 viewBox="0 0 53.9 53.9" style="enable-background:new 0 0 53.9 53.9;" xml:space="preserve">
<style type="text/css">
	.st0{fill:#FFFFFF;}
</style>
<title>icons promotions</title>
<path class="st0" d="M50.6,13.4h-11c1.8-1.8,2.8-4.3,2.8-7c0-1.4-0.3-2.8-0.9-4C40.9,0.9,39.5,0,38,0c-1.2,0-2.3,0.5-3,1.5l-8.1,10
	l-8-10C18.1,0.5,17,0,15.8,0c-1.5,0-2.9,0.9-3.5,2.3c-1.8,3.9-0.8,8.3,2.1,11.1h-11c-1.9,0-3.4,1.5-3.4,3.4v8.4
	c0,0.9,0.8,1.7,1.7,1.7h1.7v23.6c0,1.9,1.5,3.4,3.4,3.4h40.4c1.9,0,3.4-1.5,3.4-3.4V26.9h1.7c0.9,0,1.7-0.8,1.7-1.7v-8.4
	C54,14.9,52.5,13.4,50.6,13.4z M37.3,3.3C37.4,3,37.7,2.9,38,2.9c0.4,0,0.7,0.2,0.9,0.6c1.7,3.5,0.2,7.7-3.3,9.3
	c-0.6,0.3-1.3,0.5-1.9,0.6h-4.5L37.3,3.3z M14.4,6.5c0-1,0.2-2.1,0.7-3c0-0.4,0.3-0.6,0.7-0.6c0.3,0,0.6,0.1,0.8,0.4l8.1,10.1h-4.5
	C16.9,12.9,14.4,10,14.4,6.5z M25.2,50.5H6.7V26.9h18.5V50.5z M25.3,23.5L25.3,23.5H3.4v-6.7h21.9V23.5z M47.1,50.5H28.6V26.9h18.5
	V50.5z M50.5,23.5H28.6v-6.7h21.9V23.5z"/>
</svg>
