<?xml version="1.0" encoding="utf-8"?>
<!-- Generator: Adobe Illustrator 24.2.0, SVG Export Plug-In . SVG Version: 6.00 Build 0)  -->
<svg version="1.1" id="Layer_3" xmlns="http://www.w3.org/2000/svg" xmlns:xlink="http://www.w3.org/1999/xlink" x="0px" y="0px"
	 viewBox="0 0 200 200" style="enable-background:new 0 0 200 200;" xml:space="preserve">
<style type="text/css">
	.st0{fill:#FFFFFF;}
</style>
<path class="st0" d="M142.5,112.5l-30.4-34.2c-0.1-0.1-0.2-0.2-0.2-0.2c0.6-1.5,1-3.2,1-4.9v-0.4c-0.1-5.2-3.2-9.7-7.7-11.9
	c0-0.1,0-0.3,0-0.4l-3.1-43.2c-0.1-1.4-1.2-2.4-2.6-2.4l0,0c-1.4,0-2.5,1-2.6,2.4l-3.1,43.2c0,0.1,0,0.3,0,0.4
	c-4.5,2.1-7.5,6.6-7.7,11.9v0.4c0,1.8,0.4,3.4,1,5c-0.1,0.1-0.2,0.2-0.2,0.3l-30.3,34.1c-0.8,0.9-0.8,2.3,0.1,3.1L57,116
	c0.5,0.5,1,0.7,1.6,0.7c0.5,0,1.1-0.2,1.5-0.6L94.5,86c0.1-0.1,0.3-0.2,0.3-0.4c1.5,0.5,3,0.8,4.6,0.8c1.7,0,3.3-0.3,4.7-0.9
	c0.1,0.2,0.2,0.3,0.4,0.4l34.4,30.1c0.4,0.4,1,0.6,1.5,0.6c0.6,0,1.2-0.2,1.7-0.8c0,0,0-0.1,0.1-0.1c0,0,0.1,0,0.1-0.1
	C143.3,114.9,143.4,113.5,142.5,112.5z M121,116.1c4.7,0,8.6,3.8,8.6,8.6c0,4.8-3.8,8.6-8.6,8.6s-8.6-3.8-8.6-8.6
	C112.4,119.9,116.3,116.1,121,116.1z M99.5,98.9c4.7,0,8.6,3.8,8.6,8.6c0,4.7-3.8,8.6-8.6,8.6s-8.6-3.8-8.6-8.6
	C90.9,102.8,94.8,98.9,99.5,98.9z M138.2,68.8c4.7,0,8.6,3.8,8.6,8.6c0,4.7-3.8,8.6-8.6,8.6s-8.6-3.8-8.6-8.6
	C129.6,72.7,133.5,68.8,138.2,68.8z M155.4,55.9c4.7,0,8.6,3.8,8.6,8.6s-3.8,8.6-8.6,8.6s-8.6-3.8-8.6-8.6S150.7,55.9,155.4,55.9z
	 M47.9,86c4.7,0,8.6,3.8,8.6,8.6c0,4.7-3.8,8.6-8.6,8.6s-8.6-3.8-8.6-8.6C39.3,89.9,43.2,86,47.9,86z M60.8,68.8
	c4.7,0,8.6,3.8,8.6,8.6c0,4.7-3.8,8.6-8.6,8.6s-8.6-3.8-8.6-8.6C52.2,72.7,56.1,68.8,60.8,68.8z M73.7,17.2c4.7,0,8.6,3.8,8.6,8.6
	s-3.8,8.6-8.6,8.6c-4.7,0-8.6-3.8-8.6-8.6S69,17.2,73.7,17.2z M173.3,73.3C173.3,32.9,140.4,0,100,0S26.7,32.9,26.7,73.3l0,0
	c0,38.5,29.8,70.2,67.6,73.1l-18.8,46.9H55.8c-1.8,0-3.3,1.5-3.3,3.3s1.5,3.3,3.3,3.3h22.3h49.1h19.6c1.8,0,3.3-1.5,3.3-3.3
	s-1.5-3.3-3.3-3.3h-22.3l-18.8-46.9C143.5,143.5,173.3,111.8,173.3,73.3z M100,140c-36.8,0-66.7-29.9-66.7-66.7S63.2,6.7,100,6.7
	s66.7,29.9,66.7,66.7S136.8,140,100,140z"/>
</svg>
