<?xml version="1.0" encoding="utf-8"?>
<!-- Generator: Adobe Illustrator 25.4.0, SVG Export Plug-In . SVG Version: 6.00 Build 0)  -->
<svg version="1.1" xmlns="http://www.w3.org/2000/svg" xmlns:xlink="http://www.w3.org/1999/xlink" x="0px" y="0px"
	 viewBox="0 0 100 100" style="enable-background:new 0 0 100 100;" xml:space="preserve">
<style type="text/css">
	.st0{display:none;}
	.st1{display:inline;}
	.st2{fill:#FFFFFF;}
</style>
<g id="Layer_1" class="st0">
	<g class="st1">
		<path class="st2" d="M-173.4-80h-17.2c-1.3,0-2.4,1.1-2.4,2.4v17.1c0,1.3,1.1,2.4,2.4,2.4h17.1c1.3,0,2.4-1.1,2.4-2.4v-17.1
			C-171-78.9-172.1-80-173.4-80L-173.4-80z"/>
		<path class="st2" d="M-173.4-107h-17.2c-1.3,0-2.4,1.1-2.4,2.4v17.1c0,1.3,1.1,2.4,2.4,2.4h17.1c1.3,0,2.4-1.1,2.4-2.4v-17.1
			C-171-105.9-172.1-107-173.4-107L-173.4-107z"/>
		<path class="st2" d="M-227.4-107h-17.2c-1.3,0-2.4,1.1-2.4,2.4v17.1c0,1.3,1.1,2.4,2.4,2.4h17.1c1.3,0,2.4-1.1,2.4-2.4v-17.1
			C-225-105.9-226.1-107-227.4-107L-227.4-107z"/>
		<path class="st2" d="M-227.4-80h-17.2c-1.3,0-2.4,1.1-2.4,2.4v17.1c0,1.3,1.1,2.4,2.4,2.4h17.1c1.3,0,2.4-1.1,2.4-2.4v-17.1
			C-225-78.9-226.1-80-227.4-80L-227.4-80z"/>
		<path class="st2" d="M-227.4-53h-17.2c-1.3,0-2.4,1.1-2.4,2.4v17.1c0,1.3,1.1,2.4,2.4,2.4h17.1c1.3,0,2.4-1.1,2.4-2.4v-17.1
			C-225-51.9-226.1-53-227.4-53L-227.4-53z"/>
		<path class="st2" d="M-200.4-53h-17.2c-1.3,0-2.4,1.1-2.4,2.4v17.1c0,1.3,1.1,2.4,2.4,2.4h17.1c1.3,0,2.4-1.1,2.4-2.4v-17.1
			C-198-51.9-199.1-53-200.4-53L-200.4-53z"/>
		<path class="st2" d="M-166-112v86h-86v-86H-166 M-166-115.4h-86c-1.9,0-3.4,1.5-3.4,3.4v86c0,1.9,1.5,3.4,3.4,3.4h86
			c1.9,0,3.4-1.5,3.4-3.4v-86C-162.6-113.9-164.1-115.4-166-115.4L-166-115.4z"/>
		<path class="st2" d="M-173.4-53h-17.2c-1.3,0-2.4,1.1-2.4,2.4v17.1c0,1.3,1.1,2.4,2.4,2.4h17.1c1.3,0,2.4-1.1,2.4-2.4v-17.1
			C-171-51.9-172.1-53-173.4-53L-173.4-53z M-180.1-42l5.7,5.7l-1.9,1.9l-5.7-5.7l-5.7,5.7l-2-2l5.7-5.6l-5.7-5.7l1.9-1.9l5.8,5.6
			l5.7-5.7l2,2L-180.1-42z"/>
		<path class="st2" d="M-200.4-80h-17.2c-1.3,0-2.4,1.1-2.4,2.4v17.1c0,1.3,1.1,2.4,2.4,2.4h17.1c1.3,0,2.4-1.1,2.4-2.4v-17.1
			C-198-78.9-199.1-80-200.4-80L-200.4-80z M-207.1-69l5.7,5.7l-1.9,1.9l-5.7-5.7l-5.7,5.7l-2-2l5.7-5.7l-5.7-5.7l1.9-1.9l5.7,5.7
			l5.7-5.7l2,2L-207.1-69z"/>
		<path class="st2" d="M-200.4-107h-17.2c-1.3,0-2.4,1.1-2.4,2.4v17.1c0,1.3,1.1,2.4,2.4,2.4h17.1c1.3,0,2.4-1.1,2.4-2.4v-17.1
			C-198-105.9-199.1-107-200.4-107L-200.4-107z M-207.1-96l5.7,5.7l-1.9,1.9L-209-94l-5.7,5.7l-2-2l5.7-5.7l-5.7-5.7l1.9-1.9
			l5.7,5.7l5.7-5.7l2,2L-207.1-96z"/>
	</g>
	<g id="QiO5Bj.tif" class="st1">
		
			<image style="overflow:visible;" width="596" height="488" id="Layer_0" xlink:href="FD627FB76C92B6E3.png"  transform="matrix(0.5 0 0 0.5 193 -84)">
		</image>
	</g>
</g>
<g id="Layer_2">
	<g>
		<path class="st2" d="M59.8,24c0-3.6-2.9-6.5-6.5-6.5h-6.2c-3.6,0-6.5,2.9-6.5,6.5l1.7,34.3c0,0.1,0,0.3,0.1,0.4c0,0.2,0,0.3,0,0.5
			l5.9,31.9c0.4,2,3.3,2,3.7,0L57.9,59c0,0,0-0.1,0-0.1c0.1-0.2,0.1-0.4,0.1-0.6L59.8,24z"/>
		<g>
			<path class="st2" d="M38.4,32.5H9.1c-4.5,0-8.1,3.6-8.1,8.1s3.6,8.1,8.1,8.1h30.1L38.4,32.5z"/>
			<path class="st2" d="M91.3,32.5H62l-0.8,16.3h30.1c4.5,0,8.1-3.6,8.1-8.1S95.8,32.5,91.3,32.5z"/>
		</g>
		<g>
			<path class="st2" d="M62.6,81.8h-6.2l-1.4,7.8h7.6c2.1,0,3.9-1.7,3.9-3.9v0C66.4,83.6,64.7,81.8,62.6,81.8z"/>
			<path class="st2" d="M43.9,81.8h-6.1c-2.1,0-3.9,1.7-3.9,3.9v0c0,2.1,1.7,3.9,3.9,3.9h7.5L43.9,81.8z"/>
		</g>
		<path class="st2" d="M52.8,12.6c-0.3-1.2-1.4-2.1-2.7-2.1c-1.3,0-2.4,0.9-2.7,2.1l-0.1,0c0,0-13.2-1-13.2,0.7
			c0,1.6,12.4,0.6,13.2,0.6v1h5.6v-1c1.9,0.1,12.9,0.9,12.9-0.6C65.9,11.8,54.1,12.5,52.8,12.6z"/>
	</g>
</g>
</svg>
